<svg width="27" height="25" viewBox="0 0 27 25" fill="none" xmlns="http://www.w3.org/2000/svg">
<g clip-path="url(#clip0_939_16948)">
<path d="M16.5912 11.5818L6.34375 9.77344V23.1355C6.34375 23.7457 6.83843 24.2404 7.44866 24.2404H25.1309C25.7412 24.2404 26.2358 23.7457 26.2358 23.1355V18.2125L16.5912 11.5818Z" fill="#185C37"/>
<path d="M16.5912 0.12793H7.44866C6.83843 0.12793 6.34375 0.622614 6.34375 1.23284V6.15584L16.5912 12.1837L22.0163 13.9921L26.2358 12.1837V6.15584L16.5912 0.12793Z" fill="#21A366"/>
<path d="M6.34375 6.15625H16.5912V12.1842H6.34375V6.15625Z" fill="#107C41"/>
<path opacity="0.1" d="M13.6779 4.9502H6.34375V20.02H13.6779C14.2873 20.018 14.7808 19.5245 14.7828 18.9151V6.05511C14.7808 5.44571 14.2873 4.95218 13.6779 4.9502Z" fill="black"/>
<path opacity="0.2" d="M13.0751 5.55273H6.34375V20.6225H13.0751C13.6845 20.6205 14.178 20.127 14.18 19.5176V6.65765C14.178 6.04825 13.6845 5.55472 13.0751 5.55273Z" fill="black"/>
<path opacity="0.2" d="M13.0751 5.55273H6.34375V19.4169H13.0751C13.6845 19.4149 14.178 18.9214 14.18 18.312V6.65765C14.178 6.04825 13.6845 5.55472 13.0751 5.55273Z" fill="black"/>
<path opacity="0.2" d="M12.4723 5.55273H6.34375V19.4169H12.4723C13.0817 19.4149 13.5753 18.9214 13.5772 18.312V6.65765C13.5753 6.04825 13.0817 5.55472 12.4723 5.55273Z" fill="black"/>
<path d="M1.42327 5.55273H12.4748C13.0851 5.55273 13.5797 6.04742 13.5797 6.65765V17.7092C13.5797 18.3194 13.0851 18.8141 12.4748 18.8141H1.42327C0.813044 18.8141 0.318359 18.3194 0.318359 17.7092V6.65765C0.318359 6.04742 0.813044 5.55273 1.42327 5.55273Z" fill="url(#paint0_linear_939_16948)"/>
<path d="M3.74023 15.7753L6.0646 12.1736L3.93494 8.5918H5.64806L6.81024 10.8824C6.91755 11.1 6.99108 11.2616 7.03087 11.3682H7.04594C7.12229 11.1946 7.20266 11.0261 7.28705 10.8625L8.5294 8.59301H10.1021L7.91817 12.1537L10.1575 15.7753H8.4842L7.14178 13.261C7.07855 13.154 7.02489 13.0417 6.98145 12.9253H6.96156C6.92223 13.0393 6.87006 13.1485 6.80603 13.2508L5.42384 15.7753H3.74023Z" fill="white"/>
<path d="M25.1335 0.12793H16.5938V6.15584H26.2384V1.23284C26.2384 0.622614 25.7437 0.12793 25.1335 0.12793Z" fill="#33C481"/>
<path d="M16.5938 12.1836H26.2384V18.2115H16.5938V12.1836Z" fill="#107C41"/>
</g>
<defs>
<linearGradient id="paint0_linear_939_16948" x1="2.62213" y1="4.68938" x2="11.276" y2="19.6775" gradientUnits="userSpaceOnUse">
<stop stop-color="#18884F"/>
<stop offset="0.5" stop-color="#117E43"/>
<stop offset="1" stop-color="#0B6631"/>
</linearGradient>
<clipPath id="clip0_939_16948">
<rect width="25.92" height="24.1116" fill="white" transform="translate(0.320312 0.12793)"/>
</clipPath>
</defs>
</svg>
