<svg width="40" height="39" viewBox="0 0 40 39" fill="none" xmlns="http://www.w3.org/2000/svg">
<path d="M0 12.1784V4.65902C0 2.08619 1.94298 0 4.34119 0H23.715L23.7739 12.1771H0V12.1784Z" fill="url(#paint0_linear_2371_3236)"/>
<path d="M39.9995 30.1464V16.6836H17.666V38.7234H31.0903C36.0102 38.7234 39.9995 34.8828 39.9995 30.1464Z" fill="url(#paint1_linear_2371_3236)"/>
<path d="M40.0003 12.1771H29.2471V0H36.0899C38.2497 0 40.0003 1.68527 40.0003 3.76455V12.1771Z" fill="url(#paint2_linear_2371_3236)"/>
<path d="M12.195 38.7234V16.6836H0V31.2344C0 35.3708 3.48387 38.7248 7.78055 38.7248H12.1964L12.195 38.7234Z" fill="url(#paint3_linear_2371_3236)"/>
<defs>
<linearGradient id="paint0_linear_2371_3236" x1="42.8232" y1="34.2625" x2="-9.45854" y2="-17.0619" gradientUnits="userSpaceOnUse">
<stop stop-color="#69DAD1"/>
<stop offset="0.38" stop-color="#4171E2"/>
<stop offset="0.68" stop-color="#8022E0"/>
<stop offset="1" stop-color="#1C2C63"/>
</linearGradient>
<linearGradient id="paint1_linear_2371_3236" x1="38.7128" y1="36.6925" x2="-11.4437" y2="-12.5466" gradientUnits="userSpaceOnUse">
<stop stop-color="#69DAD1"/>
<stop offset="0.38" stop-color="#4171E2"/>
<stop offset="0.68" stop-color="#8022E0"/>
<stop offset="1" stop-color="#1C2C63"/>
</linearGradient>
<linearGradient id="paint2_linear_2371_3236" x1="53.0095" y1="23.8882" x2="0.72782" y2="-27.4376" gradientUnits="userSpaceOnUse">
<stop stop-color="#69DAD1"/>
<stop offset="0.38" stop-color="#4171E2"/>
<stop offset="0.68" stop-color="#8022E0"/>
<stop offset="1" stop-color="#1C2C63"/>
</linearGradient>
<linearGradient id="paint3_linear_2371_3236" x1="30.0021" y1="47.3212" x2="-22.2796" y2="-4.00324" gradientUnits="userSpaceOnUse">
<stop stop-color="#69DAD1"/>
<stop offset="0.38" stop-color="#4171E2"/>
<stop offset="0.68" stop-color="#8022E0"/>
<stop offset="1" stop-color="#1C2C63"/>
</linearGradient>
</defs>
</svg>
